<?xml version="1.0" encoding="UTF-8" standalone="no"?>
<!DOCTYPE svg PUBLIC "-//W3C//DTD SVG 1.1//EN" "http://www.w3.org/Graphics/SVG/1.1/DTD/svg11.dtd">
<svg width="100%" height="100%" viewBox="0 0 3138 1004" version="1.1" xmlns="http://www.w3.org/2000/svg" xmlns:xlink="http://www.w3.org/1999/xlink" xml:space="preserve" xmlns:serif="http://www.serif.com/" style="fill-rule:evenodd;clip-rule:evenodd;stroke-linejoin:round;stroke-miterlimit:2;">
    <g transform="matrix(4.16667,0,0,4.16667,-285,-280)">
        <path d="M244.156,145.034C243.394,145.811 242.442,147.746 242.068,149.095C241.885,150.446 241.322,152.568 241.139,153.919C240.763,155.46 240.005,156.815 239.047,157.401C237.704,158.373 236.933,158.379 231.15,157.457C227.679,156.903 223.246,156.548 221.318,156.561C219.392,156.575 216.113,156.023 213.801,155.652C211.675,154.899 209.167,153.952 208.584,153.38C207.616,152.616 207.222,151.656 207.598,150.112C207.588,148.762 208.344,146.639 208.91,145.285C209.478,143.743 211.58,141.607 214.647,139.276C218.285,136.359 220.196,134.227 222.29,130.553L227.239,122.621C228.575,120.686 230.667,117.009 231.997,114.303C234.468,109.663 235.042,109.275 240.603,105.574C245.971,102.071 246.543,101.488 248.441,97.237L251.288,91.44C251.668,90.858 253.391,89.496 255.118,88.521C256.653,87.74 258.953,85.798 260.29,84.441C261.437,82.892 263.346,80.566 264.491,79.211C265.831,77.851 267.937,76.295 269.281,75.901C270.627,75.313 274.668,74.708 277.936,74.106C281.401,73.697 285.253,73.475 286.793,73.659C288.336,73.84 290.072,74.211 290.846,74.593C291.427,74.973 292.397,75.929 292.98,76.887C293.757,77.844 294.158,79.77 294.174,82.079C294.191,84.392 293.818,86.32 292.865,87.677C292.103,89.029 289.808,90.971 286.929,92.725C284.244,94.285 280.988,96.621 279.457,98.171C277.925,99.531 275.258,103.596 273.167,107.27C271.263,110.751 267.644,116.361 265.359,119.845C263.07,123.136 259.831,128.165 258.312,131.068C256.79,133.775 254.885,136.677 254.312,137.452C253.737,138.032 251.439,139.59 249.328,140.954C247.219,142.124 244.728,144.067 244.156,145.034ZM196.909,163.67C196.339,165.023 195.389,166.764 194.622,167.348C194.049,168.12 191.943,169.677 189.835,171.041C188.109,172.209 185.811,174.15 185.048,175.311C184.092,176.283 182.765,179.373 181.629,182.077C180.498,185.361 178.596,188.65 176.112,191.556C174.01,194.075 171.15,198.139 169.628,200.846C167.913,203.554 165.055,207.813 163.146,210.139C161.044,212.658 158.185,216.722 156.469,219.238C154.945,221.754 152.08,225.049 150.167,226.797C148.446,228.542 144.231,231.845 141.168,234.179C137.909,236.515 133.498,239.243 131.387,240.028C129.08,240.813 125.041,241.807 122.157,242.404C119.463,242.81 113.688,243.427 109.645,243.456C105.599,243.484 100.975,243.133 99.43,242.758C97.884,242.193 95.565,240.86 94.206,239.523C92.658,238.184 90.709,235.309 89.539,233.197C88.369,231.088 86.799,227.053 85.814,223.98C84.639,221.1 83.451,216.87 83.051,214.561L82.25,210.328L85.286,204.143C87.753,198.925 88.128,197.191 88.104,193.916C88.089,191.796 87.676,188.14 87.468,185.832C86.864,182.369 87.051,181.21 88.373,177.733C89.127,175.418 90.839,172.323 91.791,170.777C93.128,169.034 96.189,166.316 100.408,163.586C104.05,161.251 109.422,158.324 112.109,156.956C114.992,155.78 120.755,153.814 124.984,152.626C129.215,151.633 133.445,150.448 134.406,150.249L147.114,149.772C155.011,149.715 161.564,150.056 171.587,151.331C179.103,152.048 187.204,153.34 189.905,153.897C192.413,154.458 195.116,155.401 196.084,156.165C197.245,156.928 197.832,158.078 197.841,159.428C197.848,160.391 197.475,162.319 196.909,163.67ZM270.804,154.091C269.646,154.1 267.537,155.269 265.428,156.826C262.363,158.968 261.212,159.552 258.515,159.572C256.782,159.584 253.696,159.222 251.383,158.66C249.258,158.096 247.135,157.343 246.746,156.959C246.359,156.578 245.961,155.039 245.949,153.306C246.131,151.571 246.692,149.449 247.264,148.479C247.836,147.513 249.559,145.962 251.09,144.985C252.626,144.203 255.118,142.452 256.456,141.096C257.989,139.93 260.088,137.024 261.417,134.513C262.556,132.192 265.794,126.968 268.653,122.902C271.321,118.84 275.133,113.033 276.843,109.748C278.747,106.651 281.033,102.976 281.988,101.814C283.134,100.649 286.007,98.511 288.501,96.952C290.995,95.587 293.868,93.446 294.824,92.476C295.974,91.314 297.115,89.38 297.684,88.026C298.25,86.672 298.81,83.972 298.796,82.047C298.782,80.121 298.381,77.62 297.987,76.66C297.596,75.7 296.426,73.974 295.455,72.826C294.486,71.871 292.55,70.535 291.393,70.159C290.231,69.588 287.34,69.225 285.028,69.241C282.527,69.259 278.1,69.675 274.829,70.277C271.75,70.875 268.287,71.478 267.135,71.87C265.983,72.266 264.258,73.433 263.299,74.018C262.147,74.797 260.045,77.122 258.519,79.253C256.993,81.574 255.082,83.516 253.549,84.294C251.244,85.277 251.052,85.278 249.118,84.134C248.148,83.565 246.021,82.231 244.664,81.085C242.535,79.559 241.378,79.183 237.909,79.013C234.441,78.846 233.479,79.045 231.367,80.217C230.028,81.19 228.118,83.513 226.976,85.642C225.835,87.575 224.505,89.897 223.739,90.67C222.973,91.255 221.629,92.035 220.859,92.233C219.899,92.626 217.972,92.445 216.236,92.074C214.115,91.51 211.79,89.793 204.806,82.908C197.63,75.833 195.501,74.309 191.442,72.41C187.19,70.514 186.034,70.331 179.677,70.184C175.054,70.025 170.819,70.439 167.932,71.039C165.435,71.632 161.4,73.203 158.712,74.377C155.065,76.136 152.765,77.886 149.899,80.99C146.65,84.672 145.31,85.644 142.233,86.437C140.311,87.03 138.007,88.201 137.05,88.979C135.903,90.142 135.333,91.3 135.347,93.229C135.358,94.767 135.755,96.306 135.951,96.884C136.148,97.458 138.083,98.794 140.403,99.932C144.076,101.831 144.269,102.025 145.453,105.675L147.23,111.826C147.624,113.17 148.795,115.474 150.153,116.62C151.317,117.961 153.254,119.489 154.414,119.864C155.765,120.434 158.272,120.8 160.197,120.786C162.318,120.771 165.202,120.172 166.738,119.393C168.466,118.61 171.531,116.467 173.83,114.525C175.933,112.585 178.616,110.64 179.577,110.441C180.539,110.239 183.239,110.799 186.137,111.741C189.032,112.683 192.311,113.239 193.658,113.229C195.008,113.22 196.352,112.823 197.117,112.047C197.692,111.467 198.258,109.729 198.248,108.38C198.235,106.454 197.456,105.305 194.737,102.241C192.793,99.946 190.66,97.841 190.078,97.461C189.309,97.274 187.765,96.898 186.607,96.907C185.261,96.916 183.725,97.698 182.191,98.864C180.853,100.03 179.134,102.16 178.183,103.709C177.231,105.257 174.747,108.163 172.447,109.913C170.151,111.855 167.277,114.188 165.744,114.97C164.209,115.943 162.091,116.343 160.166,116.356C158.048,116.371 156.12,116.001 154.957,115.239C153.99,114.667 152.438,112.752 151.655,111.024C150.478,108.336 150.083,106.797 150.021,98.13L149.95,88.116L152.047,85.213C153.385,83.661 155.678,81.333 157.404,80.166C159.129,78.998 162.201,77.435 164.508,76.648C167.77,75.275 169.695,75.069 177.591,75.013C185.875,74.954 187.03,74.946 189.737,76.468C191.476,77.226 196.9,81.618 201.943,86.396C206.986,91.177 211.828,95.185 213.374,95.753C214.725,96.322 217.424,96.687 219.352,96.673C222.049,96.654 223.779,96.258 225.505,95.088C226.844,94.116 228.563,91.986 230.084,89.087C231.605,86.184 233.323,84.055 234.474,83.468C235.624,82.883 237.166,82.872 238.517,83.055C240.057,83.236 241.992,84.572 243.735,85.906C246.257,88.393 246.452,88.775 246.084,91.09C245.902,92.441 244.956,94.757 244.195,96.112C243.244,97.853 241.332,99.792 238.263,101.739C235.96,103.105 233.087,105.243 231.941,106.406C230.793,107.377 229.077,109.894 228.127,112.021C227.179,114.145 225.277,117.434 223.944,119.369C222.799,121.111 220.514,124.594 219.181,126.916L215.944,132.332C215.371,132.72 213.458,134.467 211.348,136.024C209.434,137.579 207.137,139.713 206.374,140.49C205.801,141.264 204.664,143.777 203.909,145.9C203.151,147.831 202.204,149.958 201.821,150.537C201.44,150.926 200.288,151.318 199.322,151.325C198.359,151.332 195.659,150.776 193.151,150.215C190.836,149.46 182.929,148.17 175.41,147.261C168.085,146.347 157.101,145.463 151.128,145.313C144.193,145.171 138.415,145.404 135.145,145.811C132.257,146.218 126.682,147.608 122.644,148.791C118.416,149.784 112.843,151.749 110.155,152.923C107.468,154.292 102.672,156.831 99.604,158.97C96.342,160.919 92.511,163.643 90.979,165.003C89.45,166.364 87.539,168.879 86.59,170.814C85.638,172.36 84.315,175.644 83.558,177.575C82.424,180.859 81.661,181.635 78.209,183.777C75.906,185.143 73.608,187.085 72.847,188.437C72.088,189.792 71.144,192.303 70.578,194.233C69.823,196.356 69.459,199.25 69.47,200.789C69.481,202.33 69.879,204.253 70.268,205.021C70.662,205.981 72.601,207.896 74.346,209.422C77.642,212.29 77.836,212.672 79.615,219.015C80.412,222.669 81.986,227.282 82.768,229.202C83.36,231.124 85.117,234.386 86.287,236.496C87.46,238.608 89.791,241.671 91.536,243.201C93.668,244.919 96.184,246.443 98.112,246.813C100.234,247.377 104.666,247.729 110.251,247.689C115.838,247.65 121.419,247.031 124.882,246.43C128.151,245.636 132.954,244.06 135.45,242.888C138.138,241.714 143.698,237.82 147.91,234.515C154.424,229.463 156.526,227.327 159.958,222.297C162.247,219.005 165.49,214.552 167.206,212.419C168.734,210.483 171.787,206.223 173.69,203.129C175.592,199.841 178.642,195.197 180.742,192.677C183.034,189.773 184.936,186.484 185.879,183.781C186.635,181.658 187.961,178.757 188.917,177.788C189.875,176.626 192.362,174.683 194.281,173.319C196.389,171.958 198.494,170.209 199.067,169.434C199.641,168.659 200.587,166.34 201.536,164.408C202.101,162.478 203.241,160.352 203.812,159.769C204.387,159.187 205.733,158.601 206.695,158.594C207.658,158.587 209.97,158.955 211.708,159.521C213.446,160.085 218.846,160.817 223.663,161.17C229.058,161.515 233.108,162.065 234.652,162.825C236.973,163.963 236.973,163.963 237.002,168.009L237.032,172.244L231.483,177.292C227.655,180.979 225.746,183.305 224.988,185.044L223.678,190.254C223.497,191.797 222.547,193.921 221.98,195.272C221.219,196.627 219.503,199.144 217.974,200.888C216.446,202.825 214.539,205.343 213.971,206.502C213.21,207.857 212.265,210.365 211.508,212.299C210.943,214.228 209.802,216.162 208.843,216.748C208.077,217.329 205.576,217.926 203.073,218.136C200.572,218.54 198.267,219.133 197.114,219.912C195.585,221.272 195.393,221.658 195.808,225.509C196.02,228.395 196.418,230.318 197.392,231.466C198.166,232.423 199.911,233.953 201.074,234.715C202.622,235.667 204.357,236.233 206.67,236.217C209.174,236.199 210.134,235.805 210.896,234.645C211.47,233.87 212.036,232.519 212.03,231.749C212.024,230.786 212.399,229.242 212.966,227.888C213.536,226.729 214.68,225.179 215.447,224.598C216.597,224.011 219.486,223.606 225.648,223.368L234.119,223.115L237.409,225.212C239.732,226.734 241.662,227.3 243.588,227.286C244.937,227.276 246.669,227.072 247.434,226.68C248.202,226.29 249.156,224.934 249.727,223.967C250.679,222.418 250.859,220.686 250.644,217.413C250.428,214.139 250.033,212.6 249.061,211.644C248.288,210.879 246.739,209.927 245.387,209.553C243.649,208.986 242.686,208.993 241.149,209.583C239.997,209.975 238.087,212.109 236.749,213.853C234.844,216.754 233.889,217.724 231.774,218.123C230.427,218.52 226.771,218.93 223.496,218.953C219.837,218.979 217.33,218.613 216.751,218.23C216.361,217.849 215.966,216.31 215.958,215.155C215.949,213.806 216.508,211.492 217.268,209.945C218.028,208.398 219.933,205.496 221.651,203.366C223.371,201.426 225.279,198.524 226.038,197.364C226.607,196.01 227.739,192.729 228.49,190.028C229.424,185.975 229.994,184.621 232.097,182.681C233.439,181.516 235.542,179.576 236.885,178.603C238.225,177.631 239.945,175.69 240.515,174.532C241.085,173.178 241.837,170.671 242.016,168.741C242.195,167.009 242.951,164.883 243.524,164.108C244.479,162.947 245.439,162.553 247.364,162.539L254.113,163.457C256.814,164.014 258.553,164.772 259.523,165.92C260.301,166.88 261.851,168.6 263.21,169.748C264.568,171.28 265.923,172.038 267.078,172.03C268.04,172.023 269.77,171.435 270.923,170.848C272.074,170.261 273.411,168.904 273.98,167.551C274.549,166.2 274.914,163.501 274.899,161.381C275.072,158.683 274.675,156.952 273.896,155.803C273.117,154.654 272.15,154.082 270.804,154.091Z" style="fill:rgb(0,0,255);fill-rule:nonzero;"/>
        <path d="M343.788,168.493C344.002,167.377 345.387,163.83 346.951,160.398L351.126,150.412C351.96,148.227 353.963,143.539 355.754,139.768C357.352,136.281 359.846,131.539 361.192,129.424C362.804,126.963 364.206,124.158 364.516,123.51C364.857,122.463 365.557,120.672 366.151,119.461C366.835,117.923 367.471,117.386 367.862,117.212C368.451,116.975 370.61,116.238 372.363,115.757C374.16,115.265 377.03,114.255 378.778,113.361C380.398,112.599 382.154,112.084 382.78,112.079C383.553,112.074 384.133,112.244 384.449,112.419C384.555,112.599 384.678,112.787 384.799,112.972C384.925,113.16 385.113,113.45 385.193,113.653C385.223,113.734 385.26,114.034 384.964,114.975C384.683,115.542 383.593,116.788 382.548,117.613C381.354,118.558 380.1,120.091 379.594,121C378.683,122.484 378.317,125.439 378.18,127.101C378.069,129.487 377.595,131.974 377.304,132.671C377.015,133.453 375.56,136.18 373.414,139.965C371.699,142.985 368.559,147.673 366.481,150.777L366.271,151.087C364.232,153.963 361.246,157.751 359.635,159.511C357.767,161.409 356.021,163.74 354.57,166.29C353.285,168.797 352.262,170.157 351.086,170.881C350.25,171.515 348.67,172.222 347.485,172.469C346.39,172.802 345.093,172.8 344.778,172.721L344.709,172.707C344.496,172.673 344.138,172.618 343.772,171.547C343.467,170.746 343.47,169.926 343.788,168.493ZM339.247,191.617C339.231,189.334 339.314,188.374 340.345,186.505L342.75,181.112C343.421,179.327 344.144,178.037 344.462,177.764C344.665,177.591 345.813,177.135 347.283,176.88C348.724,176.625 350.639,176.239 351.587,175.825C352.506,175.423 353.837,174.448 354.942,173.602C356.038,172.626 357.528,170.317 358.496,168.597C359.29,166.971 360.99,164.679 363.019,162.483C364.792,160.684 367.728,156.809 369.709,153.971C371.702,151.115 374.547,146.673 376.209,143.948C377.77,141.385 379.59,138.051 380.406,136.509C381.247,135.04 382.144,132.631 382.403,131.137C382.641,129.768 382.88,127.777 382.872,126.625C382.864,125.569 383.095,124.157 383.365,123.605C383.657,123.01 384.788,121.614 385.975,120.532C387.544,118.942 388.6,117.849 388.983,117.201C389.477,116.363 389.691,114.918 389.683,113.86C389.675,112.792 389.291,111.442 388.669,110.376C388.128,109.577 386.931,108.481 385.802,108.009C384.609,107.622 383.276,107.489 381.916,107.638C380.774,107.788 378.485,108.602 376.818,109.451C375.221,110.263 372.671,111.104 371.079,111.485C369.491,111.863 367.382,112.616 366.506,113.004C365.302,113.466 363.972,114.61 363.389,115.21C362.731,116.009 362.02,117.451 361.444,118.642C361.188,119.429 360.622,120.829 359.824,122.665C359.224,123.882 357.903,126.192 356.89,127.79C355.736,129.486 353.367,134.215 351.691,137.749C349.816,141.689 347.507,147.046 346.532,149.371C345.548,152.133 343.743,156.401 342.626,158.786C341.472,161.374 340.108,164.647 339.739,166.035C339.085,168.046 339.119,169.547 339.261,172.798C339.647,176.702 339.653,176.777 338.405,179.666C337.636,181.498 336.611,183.8 336.071,184.79C335.08,186.47 334.583,186.589 334.577,186.592L331.554,187.222C330.317,187.478 328.814,187.983 328.025,188.317C327.306,188.756 325.431,190.427 324.016,191.982C322.238,193.786 320.72,195.129 319.027,195.872C317.543,196.694 312.767,198.261 311.237,198.763C308.134,199.62 304.139,200.617 302.508,200.864C300.486,201.17 298.953,201.183 298.426,201.021C297.747,200.892 296.771,200.67 296.269,200.475C295.782,200.284 294.96,199.659 294.637,199.193C294.286,198.503 293.563,196.606 293.098,195.021C292.379,192.111 292.405,192.056 293.011,190.6L294.477,187.352C294.776,186.428 295.003,184.05 295.093,182.726C295.075,180.216 295.159,179.724 296.65,176.804C297.959,174.261 299.413,172.593 302.387,169.579C304.715,167.215 308.59,163.156 311.055,160.538L312.807,158.672C315.175,156.148 318.064,153.062 320.048,151.052C323.133,148.037 325.212,145.506 326.799,142.819C327.893,140.839 329.153,139.222 329.572,138.939C329.882,138.704 331.007,138.24 332.032,137.976C333.287,137.688 334.738,136.869 335.579,136.154C336.278,135.442 337.054,134.107 337.463,133.115C337.73,132.153 337.959,130.008 337.948,128.522C337.932,126.3 337.64,125.257 336.783,124.274C336.264,123.592 334.653,122.507 333.832,122.003C332.559,121.32 331.932,120.725 331.641,119.881C331.298,119.095 330.695,117.334 330.441,116.001C330.063,114.657 329.437,112.581 329.033,111.409C328.519,110.278 327.606,108.7 326.778,108.025C325.987,107.245 324.428,106.474 323.716,106.173L323.699,106.168C322.281,105.611 320.262,105.529 316.248,105.558L316.207,105.558L315.358,105.596C312.41,105.73 309.36,105.871 308.058,106.099C306.875,106.206 304.993,106.612 303.332,106.97L301.996,107.256C299.908,107.794 296.598,109.069 294.494,110.143C292.207,111.18 288.779,113.063 287.031,114.248C285.505,115.215 282.99,117.025 282.377,117.966C281.699,118.791 280.594,120.803 279.864,122.545C278.729,125.203 278.5,125.391 276.735,126.29C275.6,126.933 274.097,127.947 273.349,128.711C272.355,129.571 271.664,130.957 271.416,132.536C270.923,134.433 270.886,135.276 271.627,136.874C272.258,138.117 273.186,138.919 274.718,139.545C275.757,139.998 276.841,140.778 277.214,141.235C277.654,141.761 277.891,142.775 278.144,145.274C278.336,146.806 278.73,149.52 279.211,150.465C279.607,151.369 280.384,152.545 280.92,153.07C281.377,153.629 282.248,154.227 283.655,154.901C284.649,155.182 286.71,155.4 288.252,155.389C289.883,155.377 292.203,155.137 293.477,154.703C294.684,154.29 296.322,153.511 297.25,152.701C298.128,151.939 299.41,150.522 299.956,149.555C300.507,148.568 301.243,146.509 301.686,145.031C302.153,143.588 302.94,142.175 303.338,141.767C303.641,141.384 304.736,140.827 305.991,140.588C307.06,140.368 308.901,139.849 309.572,139.335C310.77,138.468 310.878,137.356 310.983,135.305C311.089,133.414 311.004,132.204 310.259,130.889C309.822,130.025 308.828,128.892 307.988,128.566C307.326,128.306 306.015,128.034 304.893,128.042C303.985,128.048 302.448,128.306 301.54,128.618C300.699,128.988 299.616,129.688 299.107,130.547C298.636,131.344 298.626,132.758 298.78,135.616C298.921,138.733 298.949,139.381 297.798,142.685C297.087,144.616 296.144,146.906 295.861,147.618C295.449,148.24 294.453,149.251 293.682,149.704C293.06,150.125 291.235,150.821 289.943,151.049C287.769,151.308 286.951,151.291 285.896,151.022C284.764,150.527 284.054,150.011 283.724,149.449C283.212,148.563 282.826,145.89 282.58,143.96C282.076,139.836 282.181,139.489 282.977,136.796C283.867,133.93 283.955,132.848 283.568,129.575C283.31,126.392 283.425,125.798 284.205,123.861C284.627,122.674 285.639,121.049 286.285,120.274C287.062,119.489 289.647,117.699 292.139,116.37C294.714,114.874 297.792,113.316 299.132,112.745C300.423,112.264 303.497,111.414 306.016,110.916C309.492,110.222 312.448,109.916 315.907,109.891C320.749,109.857 321.536,109.979 322.473,110.432C323.2,110.907 324.032,111.666 324.291,112.092C324.567,112.543 325.511,115.099 326.301,117.918C327.344,121.692 327.428,123.291 327.3,123.708C327.196,124.238 326.617,125.9 326.053,127.164C325.122,129.195 325.028,130.711 325.048,133.457C325.071,136.662 324.999,136.787 323.151,139.957C321.89,142.173 319.866,144.715 316.797,147.946C314.686,150.09 311.725,153.264 309.562,155.583L308.35,156.883C306.362,159.137 302.524,163.033 299.856,165.743C295.783,169.748 294.54,171.298 292.876,174.446C291.511,176.806 290.465,178.201 290.094,178.462C289.791,178.694 288.76,179.042 287.703,179.192C286.748,179.475 285.384,179.991 284.455,180.533C283.612,181.103 282.535,182.207 282.181,183.083C281.591,183.986 281.333,185.715 281.341,186.943C281.345,187.472 281.39,189.258 281.873,190.194C282.403,190.964 284.988,192.161 285.54,192.41C287.876,193.324 287.933,193.545 288.211,194.634C288.456,195.464 288.962,197.194 289.433,198.296C289.699,199.708 290.59,201.455 291.457,202.304C292.19,203.172 293.661,204.194 294.684,204.568C296.003,205.143 297.849,205.464 299.752,205.451C301.543,205.438 304.179,205.032 305.744,204.657C306.516,204.475 310.518,203.509 313.635,202.536C316.186,201.82 319.714,200.556 321.036,199.88C322.52,199.128 324.71,197.428 326.897,195.338C330.002,192.367 331.127,191.841 331.496,191.748C332.779,191.373 333.366,191.357 333.521,191.385C333.882,191.455 334.297,191.784 334.497,192.099C334.758,192.694 334.802,193.249 334.13,196.02C333.747,197.355 333.165,199.817 333.539,201.24C333.69,202.12 334.24,203.326 334.821,204.04C335.39,204.743 336.479,205.672 337.459,206.081C338.489,206.516 340.236,206.736 341.425,206.727C342.569,206.719 344.69,206.46 346.144,206.054C347.154,205.741 349.397,204.963 350.623,204.271C351.939,203.604 353.785,202.34 354.899,201.454C356.009,200.457 357.546,198.663 358.163,197.396C359.15,195.888 359.876,194.993 360.154,194.784C360.611,194.409 362.053,193.831 363.406,193.598C364.414,193.404 366.517,192.892 367.257,192.328C367.894,191.844 368.71,190.852 368.959,189.916C369.448,188.761 369.343,187.107 369.229,186.168C368.945,184.661 368.382,183.556 367.368,182.56C365.951,181.299 365.354,181.12 363.325,181.411C362.006,181.554 360.424,182.08 359.565,182.662C358.702,183.244 357.673,184.56 357.124,185.545C356.462,186.887 356.087,188.484 356.097,189.921C356.108,191.529 355.834,192.671 355.122,193.916C354.583,195.016 353.323,196.651 352.245,197.633C351.38,198.62 349.678,199.781 348.518,200.374C347.42,200.931 345.427,201.664 344.027,202.026C342.441,202.328 340.927,202.484 340.534,202.432C339.73,202.211 338.97,201.791 338.583,201.326C338.255,201.005 337.973,200.251 337.971,199.861C337.967,199.375 338.175,198.01 338.514,196.975C338.93,195.698 339.259,193.296 339.247,191.617Z" style="fill:rgb(0,0,255);fill-rule:nonzero;"/>
        <path d="M396.67,175.908C397.077,175.495 397.893,175.271 400.293,174.911C402.211,174.656 404.645,174.147 405.726,173.593C407.257,172.904 409.772,170.795 410.506,170.164C412.296,168.627 413.989,167.408 414.801,167.094C415.798,166.586 418.292,165.507 420.509,164.787C423.085,163.829 426.354,162.148 429.713,160.047C433.461,157.682 435.518,156.649 437.577,156.091L439.028,155.685C440.302,155.324 441.623,154.951 442.257,154.853C442.475,154.802 442.649,154.775 442.806,154.774C443.181,154.771 443.464,154.926 444.035,155.341C444.635,155.936 444.765,156.255 444.78,158.262C444.789,159.576 444.559,161.213 444.29,161.767C443.989,162.374 443.377,163.097 442.853,163.421C442.564,163.638 441.194,164.119 439.654,164.389C438.476,164.668 436.905,165.171 436.036,166.058C435.541,166.731 435.278,167.882 435.284,168.623C435.291,169.717 435.884,170.78 437.046,171.784C438.187,172.765 439.422,173.39 440.776,173.654C441.842,173.772 443.357,173.761 444.293,173.591C445.125,173.306 446.194,172.638 446.835,171.985C447.55,171.116 447.865,169.976 447.853,168.292C447.845,167.234 448.163,164.875 448.634,163.176C449.37,160.396 449.485,158.961 449.219,155.897C449.078,152.876 449.088,152.169 449.502,151.581C449.69,151.347 450.949,150.501 453.066,149.552L454.546,149.067C456.243,148.505 458.167,147.869 459.576,147.574C461.23,147.085 462.508,146.759 462.609,146.735C462.752,146.737 462.988,146.794 463.288,146.853L463.74,146.942C463.944,146.993 464.496,147.394 464.809,148.011C465.086,148.463 465.307,149.392 465.313,150.122C465.316,150.544 465.078,152.317 464.409,155.99C463.785,158.682 463.098,162.587 462.877,164.701C462.657,166.84 462.428,170.19 462.442,172.185C462.463,175.201 462.364,175.574 460.645,178.833C459.646,180.759 458.042,183.008 456.956,183.99C456.138,184.819 453.788,186.459 451.731,187.634C449.778,188.686 446.784,190.159 444.791,190.924C443.205,191.616 440.225,192.605 438.258,192.992C436.49,193.476 432.018,194.104 428.509,194.367C423.686,194.64 420.832,194.661 417.649,194.45C415.899,194.213 411.613,193.595 409.47,192.947C407.437,192.484 404.944,191.661 404.074,191.237C403.181,190.795 402.215,189.915 401.836,189.354C401.406,188.72 400.564,186.852 399.959,185.19C399.33,183.47 398.098,181.262 397.422,180.199L397.41,180.179C396.654,179.064 396.201,177.942 396.198,177.503C396.195,176.971 396.485,176.171 396.67,175.908ZM396.915,164.179C397.551,162.086 397.772,160.371 397.752,157.599C397.609,154.269 397.726,153.85 398.696,152.092C399.346,150.993 400.432,149.156 401.117,148.456C401.731,147.73 403.541,146.205 405.358,145.215C407.07,144.219 409.93,142.776 411.729,142.089C413.65,141.429 416.601,140.466 418.174,140.007C420.19,139.53 421.663,139.351 424.656,139.329C425.549,139.323 426.576,139.333 427.795,139.351C433.312,139.311 434.399,139.539 436.064,140.191C437.1,140.64 438.185,141.42 438.505,141.811C438.966,142.494 439.926,144.151 440.539,145.584C441.235,146.951 441.683,148.638 441.687,149.2C441.691,149.808 441.528,150.076 441.134,150.414C440.34,150.728 439.202,151.117 438.238,151.316C437.776,151.421 435.386,151.982 433.927,152.582C432.703,152.996 429.685,154.803 427.473,156.224C424.128,158.348 421.427,159.725 418.679,160.699L412.452,163.198C411.603,163.629 409.558,165.208 408.072,166.484C406.499,167.834 404.368,169.254 403.618,169.643C402.637,170.016 400.91,170.474 399.701,170.593C397.791,170.83 397.8,170.83 396.954,170.092L396.945,170.083C396.328,169.558 396.138,169.085 396.131,168.056C396.126,167.361 396.437,165.642 396.915,164.179ZM470.016,112.185C470.679,110.828 472.298,108.707 473.367,107.623C474.379,106.482 476.368,105.185 477.432,104.645C478.661,104.075 480.524,103.471 481.498,103.339C482.503,103.108 484.401,102.975 485.742,102.963C487.085,102.828 488.75,103.063 489.445,103.393C490.054,103.56 491.016,104.249 491.638,104.98C492.197,105.529 493.013,106.913 493.552,108.236C494.113,109.448 494.724,111.538 494.98,113.121C495.336,114.939 495.347,116.016 495.064,117.12C494.866,117.584 494.162,119.165 493.322,120.018C492.643,120.709 491.228,121.778 490.374,122.322C489.235,122.964 487.604,124.235 486.538,125.316C485.728,126.256 484.234,128.137 483.473,129.422C482.514,130.886 481.677,131.762 480.949,132.043C480.213,132.366 478.253,132.97 476.566,133.346C475.761,133.468 473.588,133.824 473.276,133.744L473.017,133.633C472.679,133.551 471.963,133.146 471.512,132.71C470.728,132.09 470.381,131.581 470.297,131.244C470.114,130.785 469.611,128.369 469.348,125.791C469.097,123.245 468.825,119.68 468.812,117.877C468.792,115.123 468.872,114.511 470.016,112.185ZM388.336,213.063C387.54,212.28 386.287,212.03 383.547,211.643C381.699,211.542 380.213,211.117 379.871,210.866C379.806,210.817 379.443,210.488 378.833,208.916C378.612,208.048 378.352,205.571 378.338,203.55C378.324,201.511 378.667,198.687 378.995,197.329C379.314,196.009 380.104,193.761 380.833,192.397C381.412,191.221 382.636,189.528 383.532,188.294L383.944,187.715C385.133,186.378 387.097,184.424 388.407,183.425C390.059,182.137 391.349,181.537 391.637,181.517C391.89,181.516 392.652,181.897 393.314,182.544C394.012,183.353 395.039,185.085 395.506,186.548L396.024,187.792C396.51,188.976 397.013,190.202 397.399,190.866C397.941,191.801 398.997,193.1 399.903,193.73C400.901,194.576 402.744,195.569 404.175,196.036C405.595,196.538 408.349,197.26 410.319,197.711C413.638,198.543 414.869,198.673 424.462,198.605C434.22,198.536 435.115,198.401 439.189,197.383C441.476,196.794 444.912,195.609 447.119,194.761C449.22,194.004 452.353,192.414 454.395,191.248C456.26,190.106 458.938,188.249 460.189,187.111C461.666,185.748 463.377,183.453 464.427,181.429C465.8,179.005 466.015,178.879 467.663,177.884C468.028,177.666 468.451,177.41 468.975,177.077C471.253,175.563 471.497,174.264 471.833,172.464C472.015,171.491 472.242,170.283 472.882,168.62C473.295,167.355 473.546,165.846 473.766,164.518C473.936,163.502 474.095,162.541 474.32,161.821C474.593,160.091 474.909,157.919 474.899,156.47C474.889,155.074 474.618,152.572 474.232,151.08C474.097,150.507 473.993,149.798 473.883,149.058C473.687,147.727 473.485,146.349 473.086,145.34C472.592,143.761 472.251,141.69 472.241,140.683C472.196,140.122 473.083,139.68 474.159,139.204C474.678,138.973 475.165,138.757 475.561,138.455C476.215,137.9 476.873,137.669 477.08,137.667C477.746,137.663 479.535,137.205 480.936,136.761C482.544,136.288 484.15,135.441 485.274,134.459C485.982,133.747 487.342,131.948 488.138,130.555C489.058,129.155 490.43,127.662 491.434,126.983C492.157,126.431 493.298,125.67 494.271,125.017L495.133,124.438C496.358,123.609 497.642,122.154 498.388,120.758C499.546,118.793 499.696,117.82 499.676,114.993C499.662,112.925 499.297,110.784 498.626,108.816C498.242,107.609 497.426,105.314 496.87,104.509C496.391,103.416 494.95,101.955 493.853,101.093C492.459,99.846 491.111,99.146 489.342,98.752L489.307,98.743C487.953,98.506 486.44,98.386 485.643,98.391C485.285,98.394 484.561,98.477 483.724,98.577C483.117,98.648 482.445,98.728 481.754,98.794C480.17,99.07 477.416,99.989 475.668,100.821C473.49,101.686 471.556,102.939 470.075,104.441C468.942,105.59 467.325,107.617 466.573,109.016C465.858,110.356 464.75,113.194 464.238,115.298C463.728,117.55 462.948,119.99 462.755,120.602C462.091,122.09 461.967,123.458 462.24,126.257C462.394,127.475 462.549,129.248 462.707,131.019C462.812,132.231 462.919,133.44 463.029,134.51C463.416,137.084 463.528,139.71 463.467,140.059C463.27,140.66 462.981,141.372 462.761,141.842C462.376,142.074 461.117,142.569 459.23,143.056C457.49,143.505 454.094,144.513 451.896,145.436C449.668,146.275 447.577,146.746 447.074,146.756C446.469,146.693 446.241,146.541 444.55,143.216C443.283,140.858 441.77,138.73 440.681,137.79C439.671,136.942 437.684,136.066 436.367,135.718C435.125,135.357 431.8,134.878 429.007,134.767C426.054,134.674 422.934,134.792 420.585,135.083C418.628,135.466 415.471,136.216 413.492,136.849C411.495,137.454 407.966,138.916 405.641,140.102C403.493,141.138 400.539,142.907 399.071,144.262C397.501,145.611 396.106,147.465 394.685,150.096C393.069,153.028 392.69,153.385 391.07,154.267C389.847,154.889 388.151,156.053 387.436,156.916C386.66,157.838 385.738,159.427 385.49,160.598C385.12,161.738 384.742,163.78 384.752,165.228C384.763,166.732 385.243,168.817 386.184,171.448C386.901,173.322 387.491,175.631 387.498,176.596C387.508,178.056 387.508,178.056 384.301,181.081C382.269,182.899 379.778,185.651 378.78,187.179C377.625,188.738 376.275,191.263 375.687,192.71C375.072,194.219 374.353,197.042 373.98,198.994C373.733,201.052 373.65,204.034 373.786,205.994C373.988,207.432 374.397,210.056 374.831,211.469C375.149,212.395 375.414,214.449 375.425,216.046C375.443,218.594 375.724,219.639 376.69,220.86C377.246,221.682 378.314,222.611 379.149,223.091C379.896,223.382 381.59,223.62 382.853,223.611C384.112,223.602 385.902,223.371 386.856,222.887C387.801,222.407 388.645,221.362 389.174,220.012C389.774,218.472 389.936,217.162 389.684,216.084C389.536,214.96 388.969,213.69 388.336,213.063Z" style="fill:rgb(0,0,255);fill-rule:nonzero;"/>
        <path d="M536.033,205.265C535.204,204.442 533.016,204.435 532.769,204.436C531.667,204.444 529.95,204.692 528.891,205.159C528.051,205.587 526.653,206.626 525.903,207.516C525.066,208.366 523.151,210.308 521.452,211.905C519.927,213.455 517.716,215.099 516.61,215.66C515.059,216.45 514.219,216.68 511.661,216.699C509.979,216.711 507.301,216.354 506.046,216.157C504.636,215.818 502.031,214.885 500.245,213.95C497.542,212.712 495.666,211.938 494.69,211.654C493.151,211.153 490.225,210.804 485.735,210.586C480.664,210.386 478.06,209.948 472.297,208.64L461.382,206.297C459.273,205.844 456.191,205.247 454.409,205.003C452.752,204.759 448.665,204.672 445.564,204.694C442.661,204.715 438.559,204.962 436.724,205.374C435.16,205.623 431.75,206.602 429.212,207.638C426.597,208.532 423.762,209.797 422.86,210.257C421.753,210.757 420.213,211.885 419.113,213.001C418.195,213.935 416.708,215.959 415.977,217.45C414.737,219.742 414.499,219.843 412.629,220.627C410.115,221.797 409.427,222.337 409.196,222.577C408.236,223.361 407.735,224.964 407.582,225.558C407.437,226.778 407.646,227.917 408.152,228.783C408.764,230.128 409.582,230.739 411.764,231.492C413.418,232.166 414.197,232.548 414.469,232.708C414.67,233.178 415.179,234.792 415.665,236.921C416.158,239.174 416.914,241.554 417.26,242.375C417.66,243.026 418.426,243.917 419.041,244.52C419.714,245.051 420.862,245.802 421.828,246.205C422.863,246.587 424.73,246.845 426.364,246.833C428.005,246.821 430.849,246.426 432.845,246.036C434.822,245.56 437.566,244.798 438.984,244.271C440.322,243.772 442.179,242.782 443.303,242.061C444.301,241.304 446.028,239.572 447.195,237.993C448.243,236.578 449.503,235.304 449.786,235.072C450.244,234.839 450.821,234.669 450.987,234.668C451.429,234.665 452.823,234.297 453.363,234.139C454.399,233.873 455.814,233.208 456.402,232.445C457.456,231.378 457.726,230.51 457.71,228.212C457.692,225.708 457.556,224.978 456.248,223.542C454.815,221.99 454.337,221.831 451.137,221.854C448.357,221.873 447.465,222.098 446.28,223.142C445.23,224.359 445.116,225.009 445.266,228.932L445.406,232.756L443.744,235.01C442.907,236.348 441.443,237.886 440.719,238.313C439.889,238.915 438.614,239.611 437.857,239.939C437.228,240.214 435.469,240.729 432.873,241.397C430.885,241.995 428.171,242.364 426.641,242.378C425.085,242.491 423.845,242.328 423.037,241.935C421.748,241.092 421.474,240.611 421.341,240.275C421.067,239.829 420.338,237.542 419.951,235.101C419.358,232.231 419.082,229.406 419.057,225.965C419.141,221.433 419.257,220.941 420.131,219.163C420.676,218.045 421.801,216.684 422.659,215.922C423.228,215.249 425.415,213.977 427.532,213.089C429.53,212.249 432.674,211.01 434.453,210.404C437.245,209.567 438.19,209.444 446.435,209.385C455.549,209.437 455.549,209.437 462.261,210.948C466.016,211.765 470.981,212.942 473.411,213.53C476.372,214.219 479.539,214.589 484.34,214.805C488.094,215.028 491.703,215.363 492.528,215.564C493.274,215.771 495.721,216.786 497.834,217.76C500.068,218.925 502.894,219.981 504.354,220.334C505.968,220.695 508.925,221.052 511.45,221.034C514.99,221.009 516.367,220.871 518.112,220.05C519.164,219.516 521.248,218.015 522.873,216.625C524.833,214.868 525.639,214.513 526.302,214.509C526.855,214.505 528.417,214.927 529.544,215.594C531.01,216.38 532.802,216.868 533.949,216.996C535.314,216.987 536.14,216.606 537.028,215.549C537.895,214.38 538.028,213.445 538.011,211.045C538.001,209.553 537.768,207.504 537.411,206.803C537.069,206.128 536.322,205.435 536.033,205.265Z" style="fill:rgb(0,0,255);fill-rule:nonzero;"/>
        <path d="M491.371,224.24C489.129,223.922 486.258,223.541 485.307,223.547C484.411,223.554 482.608,224.096 481.338,224.617C480.561,224.972 479.075,225.829 477.502,226.736C476.784,227.151 476.051,227.575 475.315,227.99C473.274,229.331 470.815,231.199 469.757,232.14C468.821,233.092 466.799,235.809 465.347,237.852C463.887,239.948 461.832,243.395 460.849,245.386L458.215,250.876C457.696,252.043 456.977,252.764 455.534,253.554C454.344,254.281 453.172,255.185 452.621,255.765C452.287,256.276 451.412,258.395 450.755,260.429C450.019,262.43 448.84,265.161 448.188,266.384L445.655,270.925C445.523,271.191 444.374,273.567 444.383,274.817C444.385,275.236 443.862,277.276 443.024,279.234C442.135,281.433 440.582,284.417 439.98,285.556C439.025,287.128 437.39,289.498 436.207,290.819C435.174,292.1 432.958,294.117 431.41,295.326C429.964,296.454 427.453,297.981 425.735,298.924C424.208,299.758 421.066,300.863 418.952,301.433C416.69,301.929 413.462,302.552 411.826,302.682C409.148,302.812 408.543,302.796 407.509,302.19C406.668,301.78 405.953,301.034 405.46,300.072C404.967,298.973 404.405,297.258 404.289,296.087C404.06,294.137 404.06,294.137 405.558,292.18C406.889,290.338 407.516,289.292 407.504,287.678C407.494,286.323 407.076,285.232 406.268,284.435C405.761,283.929 404.805,283.232 404.041,282.932C403.04,282.535 400.675,282.532 400.213,282.535C398.494,282.547 396.975,282.863 396.138,283.358C395.256,283.742 394.009,284.656 393.494,285.483C392.944,286.205 392.418,287.524 392.283,288.54C392.139,289.911 392.351,291.131 392.896,292.07C393.485,293.083 394.476,293.809 395.989,294.345C396.698,294.622 397.404,294.943 397.988,295.207C398.347,295.367 398.662,295.51 398.907,295.61C399.223,295.893 399.688,296.637 399.873,297.267L400.746,300.522C401.045,301.692 402.007,303.25 402.764,304.123C403.362,304.811 404.295,305.566 405.748,306.504C406.792,306.942 408.414,307.157 410.563,307.142C412.471,307.128 415.789,306.61 418.238,306.101C420.683,305.569 423.722,304.674 425.12,304.08C426.556,303.546 429.187,302.128 430.936,301.066C432.816,299.915 435.751,297.558 437.478,295.807C439.22,294.034 441.475,291.302 442.872,289.45C444.02,287.639 445.57,284.702 446.411,282.741C447.12,280.93 448.055,279.169 448.219,278.915C448.45,278.66 449.717,278.017 450.514,277.607C451.656,277.139 453.288,276.232 453.929,275.581C454.602,274.896 455.619,272.387 456.27,270.274C456.948,268.192 458.323,264.895 459.32,262.73C460.238,260.862 461.391,257.826 461.653,256.177C461.87,254.803 462.807,252.053 463.619,250.041C464.322,248.252 465.6,245.643 466.406,244.357L470.218,238.548C471.529,236.735 473.397,234.744 474.294,234.057C474.953,233.485 477.037,232.126 479.598,230.595C481.874,229.256 484.05,228.347 484.817,228.243C485.866,228.128 486.958,228.338 488.775,229.003C490.304,229.629 492.463,230.131 493.588,230.123C495.144,230.112 496.024,229.891 496.466,229.393C496.975,228.985 497.319,228.305 497.314,227.688C497.311,227.173 497.041,226.466 496.701,226.038C496.488,225.643 495.74,225.079 491.371,224.24Z" style="fill:rgb(0,0,255);fill-rule:nonzero;"/>
        <path d="M547.97,156.287C548.904,154.201 550.673,151.041 551.846,149.154C553.067,147.356 555.081,143.822 556.698,140.983L556.911,140.612C558.396,137.952 561.244,133.167 563.249,129.959C565.476,126.557 567.133,124.364 567.546,124.027C567.908,123.765 569.787,123.42 570.912,123.214L571.109,123.175C574.181,122.833 574.821,122.762 576.109,121.156C577.407,119.529 577.474,119.119 576.91,116.287C576.496,113.742 576.13,112.97 574.84,111.944C573.523,110.892 572.647,110.852 570.24,110.994C568.854,111.149 566.965,111.459 566.237,111.741C565.487,112.139 564.728,113.066 564.287,114.096C563.828,114.978 563.423,116.409 563.538,117.449C563.619,118.182 563.63,119.421 563.494,120.239C563.447,120.696 562.465,122.798 560.744,125.777C559.245,128.219 557.292,131.188 556.399,132.431C555.538,133.647 553.681,136.793 552.346,139.295C550.945,141.865 548.912,145.507 547.781,147.321C547.195,148.271 545.211,151.51 544.389,153.372L541.889,158.425C541.313,159.683 538.885,163.842 536.833,167.324C534.554,171.197 531.198,176.561 529.193,179.333C526.328,183.446 524.562,185.422 520.986,188.513L519.89,189.458C517.745,191.3 515.528,193.209 514.671,193.82C513.572,194.654 511.544,195.829 510.149,196.433C508.659,197.077 504.993,198.215 502.154,199C498.789,199.867 496.3,200.365 495.465,200.377C494.676,200.243 493.41,199.821 492.715,199.364C491.815,198.812 491.157,197.95 489.63,194.266C488.306,191.294 487.334,188.878 487.143,188.074C486.802,186.887 486.857,186.831 487.59,186.011C487.818,185.652 488.768,185.093 489.716,184.737C490.279,184.593 491.048,184.317 491.684,184.089C491.994,183.976 492.27,183.878 492.606,183.753C493.386,183.335 494.277,182.22 494.492,181.436C494.915,180.293 494.613,178.838 494.458,178.246C494.216,177.392 493.404,176.13 492.555,175.318C491.516,174.488 490.306,174.002 489.256,173.986C488.307,173.967 486.915,174.114 486.012,174.35C484.891,174.637 483.33,175.896 482.503,176.681C481.679,177.714 480.722,179.361 480.328,180.432L480.314,180.467C479.87,181.866 479.959,183.384 480.196,184.351C480.441,185.315 481.361,187.359 482.078,188.834C482.815,190.257 484.248,193.342 485.296,195.888C486.371,198.138 487.801,200.879 488.5,201.834C489.3,202.724 490.854,203.612 491.977,204.026C493.076,204.431 494.09,204.616 495.428,204.606C496.106,204.601 496.865,204.547 497.76,204.447C499.62,204.239 503.447,203.325 506.451,202.372C509.504,201.466 512.7,200.155 514.806,198.939C516.505,197.906 519.999,195.339 522.682,192.995C525.173,190.819 528.467,187.704 529.819,186.016C531.154,184.343 533.292,181.523 534.631,179.582C535.964,177.627 538.365,173.706 539.529,171.802L539.992,171.001C541.388,168.592 543.124,165.589 544.016,163.869C544.875,162.371 546.167,159.901 547.97,156.287Z" style="fill:rgb(0,0,255);fill-rule:nonzero;"/>
        <path d="M603.939,116.85C603.409,116.031 602.075,114.958 601.028,114.506C600.17,114.134 599.052,113.555 598.429,113.164C598.073,112.939 597.127,111.596 596.198,109.384C595.259,107.537 593.871,104.988 593.071,103.652C592.163,102.344 590.452,100.631 589.284,99.701C588.024,98.811 585.605,97.679 583.795,97.133C582.037,96.547 579.319,95.979 578.035,95.775C576.707,95.567 573.848,95.264 571.541,95.138L571.52,95.135C568.698,95.054 564.802,95.268 560.236,95.774C556.371,96.325 551.33,97.132 549.362,97.606C547.257,98.2 544.377,99.017 542.811,99.563C541.386,100.091 538.568,101.394 536.585,102.35C534.507,103.351 530.625,105.549 528.021,107.109C523.338,109.943 522.664,110.443 517.843,116.062C513.206,121.307 512.685,122.204 511.215,126.039C509.755,129.706 509.755,129.706 507.503,131.226C506.255,132.09 504.599,133.481 504.079,134.499C503.533,135.358 503.309,136.937 503.417,137.904C503.507,138.704 503.9,139.972 504.345,140.789C504.921,141.544 506.034,142.261 506.821,142.415C507.663,142.726 508.846,142.979 509.204,143.009C509.627,143.163 510.333,143.417 510.766,143.763C511.021,144.005 511.846,145.483 512.398,147.128C513.106,148.854 514.209,150.958 514.981,152.04C515.927,153.284 517.14,154.136 518.714,154.652C520.431,155.151 521.822,155.217 524.429,154.931C526.278,154.726 528.665,154.229 529.776,153.816C530.611,153.476 532.268,152.516 533.107,151.46C534.381,150.157 535.464,147.924 537.743,141.907C538.254,140.571 540.809,133.833 541.008,132.372C541.148,131.565 541.484,130.513 541.549,130.355C541.769,130.083 542.893,129.15 544.368,128.264C546.259,127.107 547.348,126.012 547.773,124.86C548.222,123.827 548.282,122.826 547.942,121.263C547.421,120.011 546.984,119.077 546.53,118.592C545.964,117.991 544.898,117.431 544.318,117.281C543.344,116.84 541.463,116.99 540.696,117.077C539.861,117.17 538.037,117.46 537.138,117.87C536.187,118.267 535.265,119.187 534.814,119.967C534.479,120.687 534.183,121.958 534.288,122.894C534.416,124.074 535.612,126.523 535.765,126.83C536.735,128.603 536.787,129.051 536.642,130.754C536.548,131.813 535.363,135.713 533.803,139.637C532.416,143.39 530.882,146.941 530.52,147.65C530.052,148.393 529.417,149.066 528.915,149.308C528.35,149.67 526.815,150.19 525.497,150.464C524.249,150.819 522.429,150.931 521.529,150.804C520.326,150.585 519.395,150.135 518.727,149.427C518.349,149.072 517.573,148.063 516.625,145.295C515.706,142.323 515.684,142.09 516.056,139.126C516.387,136.233 516.383,135.296 515.603,132.748C514.843,130.132 514.81,129.795 515.175,128.257C515.487,127.126 516.116,125.527 516.766,124.554C517.185,123.693 519.378,120.903 521.765,118.204C525.504,113.933 526.12,113.429 531.195,110.463C534.122,108.569 538.136,106.42 540.014,105.517C541.995,104.685 545.134,103.491 547.003,102.919C549.086,102.145 554.75,101.116 556.607,100.779C560.415,100.112 564.664,99.64 567.427,99.574C570.083,99.526 573.748,99.608 575.626,99.862C577.551,100.118 580.365,100.756 581.872,101.202C583.507,101.679 585.199,102.405 585.922,102.97C586.76,103.441 587.971,104.419 588.545,105.287C589.181,106.001 590.488,108.109 591.384,109.88C592.329,111.834 592.995,113.836 593.057,114.415L593.831,121.376C594.311,126.75 594.208,126.937 593.421,128.394C592.744,129.641 590.947,131.399 587.933,133.765C585.084,135.967 582.64,137.611 581.979,137.883C581.228,138.237 580.516,138.298 576.962,137.456C573.248,136.779 572.285,136.687 570.523,137.31C569.479,137.696 568.22,138.629 567.514,139.519C566.74,140.321 566.059,141.923 566.029,142.93C565.88,144.048 566.023,145.37 566.445,146.609C566.829,147.54 567.624,148.756 568.171,149.29C568.626,149.892 569.932,150.593 573.205,151.98C575.634,152.879 577.232,153.74 578.058,154.592C578.744,155.355 579.642,156.803 579.872,157.776C580.293,158.844 580.483,160.14 580.361,161.051C580.233,161.805 579.907,163.017 579.604,163.753C579.129,164.472 578.005,165.882 576.781,166.873C575.626,168.028 573.648,170.511 572.265,172.38C571.118,174.194 568.923,176.839 567.471,178.38C565.957,179.83 564,182.299 563.079,183.72C562.152,185.003 560.234,187.431 558.784,188.832C557.365,190.104 555.53,192.136 555.026,193.236C554.077,194.427 553.208,197.307 553.037,197.893C552.604,199.548 551.85,201.048 551.55,201.423C551.236,201.815 550.344,202.47 549.561,202.792C548.582,203.288 547.386,204.065 546.607,204.591C546.001,205.2 545.17,206.236 544.834,207.143C544.5,208.056 544.116,210.173 543.958,211.992C543.839,214.512 543.881,215.902 544.403,216.922C545.055,218.581 545.916,219.107 548.34,219.942C550.781,220.844 550.781,220.844 551.483,222.666C551.632,223.127 551.834,223.716 552.045,224.34C552.366,225.295 552.719,226.334 552.957,227.129C553.365,228.406 554.34,230.121 554.924,230.818C555.635,231.793 557.256,232.698 558.451,233.073C559.568,233.487 560.806,233.699 562.024,233.69C562.365,233.688 562.699,233.668 563.033,233.631C564.396,233.482 567.091,232.779 568.927,232.094C570.665,231.418 573.198,230.173 574.777,229.298C576.149,228.34 578.395,226.334 579.89,224.735C581.339,223.204 583.194,220.622 583.914,219.142C584.732,217.705 585.614,215.25 585.962,213.447C586.426,211.265 587.056,210.359 587.293,210.101C587.77,209.737 589.307,208.993 590.846,208.592C592.445,208.162 594.377,207.441 595.293,206.926C596.08,206.414 597.178,205.342 597.654,204.425C598.099,203.561 598.394,202.142 598.301,201.331C598.223,200.599 597.798,199.29 597.289,198.502C596.76,197.689 595.725,196.96 594.809,196.551C593.929,196.307 591.419,196.38 589.506,196.594C587.106,196.859 584.795,197.501 583.545,198.03C582.432,198.547 581.022,199.508 580.493,200.347C579.989,201.142 579.69,202.447 579.796,203.386C579.877,204.127 580.336,205.755 580.851,206.869C581.434,207.967 581.775,209.265 581.807,210.518C581.831,211.859 581.414,213.735 580.73,215.317C579.953,217.268 578.717,219.272 577.159,221.098C575.774,222.693 573.502,224.717 572.359,225.519C571.004,226.398 568.749,227.464 567.437,227.954C566.091,228.452 563.872,228.933 562.646,229.07C560.946,229.259 560.261,229.186 559.604,228.74C559.052,228.392 558.37,227.855 557.983,227.471C557.738,226.923 557.034,225.276 556.555,223.779L556.124,222.031C555.803,220.75 555.471,219.426 555.409,218.894C555.316,218.019 555.652,216.295 556.296,214.391C557.324,211.271 557.421,210.631 556.836,206.522C556.279,202.538 556.361,202.284 557.406,199.159C558.349,196.302 558.887,195.469 563.166,190.255C564.089,189.192 565.036,188.089 565.921,187.053C567.548,185.151 569.089,183.354 569.747,182.712C570.657,181.717 572.506,179.542 573.744,177.855L579.977,170.335C582.837,166.903 584.144,164.977 584.66,163.385C585,161.812 584.984,160.375 584.601,158.074C584.341,156.59 583.823,154.531 582.847,153.156C582.192,152.256 580.76,150.896 579.611,150.096C578.989,149.717 576.857,148.452 575.487,148.11C574.459,147.887 573.017,147.243 572.327,146.788C571.483,146.213 570.843,145.484 570.7,144.933C570.52,144.23 570.541,143.436 570.758,142.855C570.96,142.301 571.451,141.806 571.991,141.581C572.832,141.299 573.652,141.276 576.356,141.931C578.171,142.282 580.73,142.592 581.901,142.447C582.953,142.332 584.361,141.953 585.024,141.433C585.739,141.05 588.378,139.033 590.52,137.232C592.783,135.534 595.51,133.26 596.117,132.337C596.725,131.576 597.671,129.955 598.275,128.63C598.97,127.023 599.477,126.344 601.342,125.197C602.888,124.133 604.098,122.94 604.643,121.848C605.072,120.312 605.076,119.725 605.042,119.42C605.008,119.091 604.855,118.47 603.939,116.85Z" style="fill:rgb(0,0,255);fill-rule:nonzero;"/>
        <path d="M806.818,216.372C806.451,218.687 805.323,222.93 804.189,225.83C803.248,228.917 801.735,232.973 800.596,235.099C799.456,237.228 797.548,240.13 796.019,241.487C794.679,242.846 792.377,244.21 790.842,244.799C789.303,245.197 784.684,245.614 780.639,245.643C776.596,245.672 770.812,245.134 768.113,244.769C765.221,244.211 761.168,243.277 758.85,242.523C756.727,241.767 752.278,239.103 748.987,236.816C745.89,234.526 741.629,231.281 739.883,229.56C737.945,227.84 735.034,224.589 733.474,222.095C731.723,219.603 728.806,215.578 726.668,213.092C724.726,210.793 721.807,206.576 720.055,203.892C718.494,201.207 715.577,197.181 713.439,194.695C710.914,191.822 708.965,188.563 707.787,185.297C706.613,182.609 705.241,179.535 704.272,178.579C703.493,177.43 701.167,175.521 699.428,174.376C697.298,173.044 695.169,171.518 694.585,170.751C693.81,170.181 692.835,168.454 692.247,167.108C691.661,165.766 691.261,163.84 691.254,162.878C691.244,161.531 691.815,160.369 692.964,159.593C693.921,158.815 696.611,157.833 699.111,157.237C701.803,156.639 709.885,155.234 717.39,154.41C727.394,152.989 733.942,152.559 741.838,152.502L754.552,152.796C755.516,152.984 759.762,154.108 764.007,155.041C768.253,156.165 774.043,158.05 776.942,159.187C779.648,160.514 785.061,163.367 788.737,165.65C792.994,168.316 796.093,170.991 797.455,172.715C798.429,174.249 800.184,177.32 800.971,179.624C802.343,183.081 802.546,184.235 801.992,187.706C801.816,190.02 801.456,193.681 801.471,195.802C801.494,199.074 801.893,200.805 804.432,205.987L807.559,212.129L806.818,216.372ZM680.426,156.983C679.852,157.566 677.357,158.547 675.242,159.332C672.936,159.736 669.665,160.335 667.739,160.349C665.811,160.362 661.384,160.781 657.921,161.381C652.151,162.385 651.38,162.391 650.027,161.438C649.057,160.869 648.28,159.525 647.882,157.986C647.68,156.64 647.086,154.524 646.885,153.179C646.491,151.832 645.512,149.913 644.738,149.148C644.153,148.189 641.635,146.282 639.509,145.142C637.379,143.808 635.059,142.283 634.476,141.711C633.891,140.944 631.945,138.07 630.385,135.384C628.825,132.504 625.515,127.522 623.179,124.263C620.845,120.813 617.146,115.254 615.193,111.801C613.049,108.154 610.324,104.13 608.773,102.792C607.221,101.264 603.932,98.976 601.225,97.453C598.321,95.74 595.998,93.831 595.218,92.49C594.245,91.147 593.845,89.225 593.828,86.912C593.812,84.603 594.185,82.672 594.949,81.704C595.518,80.737 596.474,79.767 597.05,79.379C597.818,78.987 599.549,78.59 601.089,78.387C602.626,78.182 606.481,78.349 609.951,78.708C613.228,79.264 617.277,79.811 618.628,80.38C619.981,80.754 622.109,82.281 623.468,83.621C624.633,84.959 626.575,87.258 627.743,88.791C629.099,90.128 631.425,92.037 632.973,92.797C634.713,93.747 636.456,95.085 636.844,95.658L639.773,101.416C641.732,105.64 642.312,106.215 647.729,109.641C653.343,113.263 653.921,113.643 656.459,118.247C657.827,120.933 659.971,124.58 661.334,126.496L666.396,134.357C668.543,138.001 670.483,140.105 674.163,142.97C677.262,145.257 679.395,147.362 679.985,148.897C680.57,150.242 681.356,152.354 681.366,153.704C681.764,155.243 681.384,156.208 680.426,156.983ZM818.999,195.869C818.407,193.947 817.426,191.45 816.646,190.106C815.868,188.765 813.542,186.853 811.22,185.523C807.738,183.43 806.965,182.664 805.784,179.398C804.999,177.478 803.629,174.212 802.655,172.677C801.679,170.759 799.733,168.268 798.185,166.933C796.633,165.594 792.763,162.925 789.474,161.023C786.376,158.928 781.545,156.458 778.839,155.127C776.134,153.992 770.533,152.106 766.291,151.173C762.237,150.045 756.643,148.738 753.749,148.371C750.474,148.011 744.694,147.86 737.761,148.101C731.791,148.336 720.821,149.377 713.51,150.392C706.004,151.408 698.117,152.814 695.813,153.601C693.312,154.195 690.62,154.793 689.658,154.8C688.692,154.807 687.534,154.431 687.148,154.047C686.757,153.474 685.779,151.36 684.994,149.44C684.209,147.328 683.036,144.832 682.452,144.065C681.678,143.3 679.351,141.199 677.415,139.671C675.283,138.145 673.345,136.425 672.767,136.045L669.453,130.676C668.087,128.373 665.753,124.923 664.583,123.197C663.223,121.282 661.274,118.02 660.296,115.91C659.315,113.796 657.564,111.304 656.402,110.35C655.239,109.203 652.336,107.106 650.014,105.773C646.917,103.87 644.978,101.958 644.003,100.231C643.223,98.888 642.243,96.585 642.042,95.237C641.641,92.927 641.831,92.542 644.317,90.02C646.041,88.661 647.957,87.298 649.497,87.095C650.842,86.893 652.384,86.882 653.543,87.45C654.702,88.02 656.45,90.125 658.012,93.006C659.574,95.883 661.323,97.988 662.677,98.941C664.418,100.086 666.155,100.457 668.851,100.438C670.779,100.424 673.473,100.022 674.815,99.433C676.353,98.844 681.138,94.766 686.112,89.914C691.086,85.065 696.447,80.596 698.175,79.813C700.861,78.253 702.015,78.244 710.299,78.185C718.196,78.129 720.123,78.307 723.407,79.634C725.722,80.388 728.816,81.907 730.558,83.05C732.3,84.192 734.626,86.488 735.986,88.02L738.124,90.893L738.196,100.907C738.257,109.575 737.884,111.119 736.746,113.823C735.99,115.562 734.463,117.499 733.504,118.085C732.352,118.864 730.429,119.261 728.312,119.276C726.386,119.29 724.263,118.921 722.715,117.969C721.171,117.21 718.263,114.918 715.94,113.009C713.615,111.292 711.09,108.421 710.117,106.887C709.143,105.352 707.394,103.247 706.039,102.099C704.489,100.955 702.942,100.195 701.596,100.205C700.438,100.213 698.902,100.611 698.133,100.808C697.557,101.197 695.454,103.332 693.543,105.655C690.868,108.757 690.106,109.918 690.119,111.843C690.129,113.193 690.72,114.922 691.303,115.494C692.079,116.259 693.429,116.636 694.778,116.627C696.125,116.617 699.396,116.015 702.277,115.032C705.159,114.048 707.854,113.45 708.818,113.635C709.782,113.823 712.492,115.73 714.623,117.64C716.949,119.549 720.045,121.648 721.784,122.406C723.331,123.163 726.223,123.721 728.343,123.706C730.269,123.692 732.77,123.291 734.113,122.702C735.268,122.31 737.182,120.755 738.327,119.397C739.669,118.233 740.807,115.912 741.181,114.563L742.871,108.387C744.002,104.72 744.193,104.523 747.838,102.572C750.142,101.401 752.058,100.037 752.246,99.461C752.434,98.88 752.81,97.336 752.799,95.797C752.785,93.869 752.198,92.718 751.035,91.572C750.067,90.808 747.746,89.67 745.817,89.105C742.728,88.356 741.375,87.403 738.073,83.767C735.163,80.705 732.839,78.988 729.167,77.28C726.463,76.145 722.406,74.632 719.9,74.074C717.005,73.516 712.765,73.162 708.144,73.387C701.79,73.624 700.637,73.824 696.413,75.78C692.381,77.737 690.274,79.291 683.199,86.468C676.314,93.451 674.014,95.201 671.901,95.795C670.17,96.191 668.246,96.4 667.281,96.02C666.509,95.833 665.154,95.072 664.379,94.499C663.602,93.737 662.239,91.434 661.071,89.517C659.898,87.404 657.956,85.109 656.603,84.156C654.474,83.013 653.51,82.828 650.044,83.045C646.578,83.261 645.427,83.656 643.317,85.213C641.979,86.377 639.871,87.742 638.909,88.325C636.992,89.493 636.8,89.495 634.481,88.548C632.937,87.791 630.995,85.877 629.44,83.578C627.883,81.469 625.749,79.175 624.586,78.412C623.619,77.84 621.877,76.698 620.72,76.319C619.562,75.943 616.091,75.389 613.004,74.835C609.725,74.28 605.292,73.928 602.791,73.945C600.479,73.962 597.593,74.366 596.44,74.953C595.288,75.346 593.372,76.709 592.416,77.678C591.461,78.84 590.316,80.582 589.939,81.547C589.559,82.513 589.193,85.02 589.207,86.945C589.22,88.871 589.818,91.563 590.404,92.908C590.992,94.254 592.161,96.171 593.327,97.318C594.296,98.273 597.2,100.373 599.713,101.702C602.229,103.225 605.132,105.322 606.295,106.472C607.266,107.619 609.604,111.262 611.552,114.328C613.309,117.591 617.204,123.343 619.929,127.367C622.846,131.392 626.158,136.569 627.329,138.87C628.694,141.365 630.835,144.241 632.384,145.385C633.741,146.722 636.257,148.438 637.804,149.198C639.35,150.149 641.094,151.678 641.68,152.637C642.266,153.596 642.857,155.712 643.064,157.444C643.076,159.178 642.7,160.719 642.319,161.109C641.935,161.495 639.823,162.281 637.71,162.875C635.402,163.467 632.321,163.876 630.588,163.889C627.891,163.908 626.733,163.337 623.637,161.242C621.506,159.715 619.38,158.576 618.223,158.584C616.876,158.593 615.917,159.176 615.155,160.339C614.392,161.5 614.021,163.236 614.232,165.931C614.247,168.051 614.65,170.745 615.238,172.087C615.827,173.433 617.183,174.77 618.342,175.34C619.504,175.908 621.241,176.474 622.204,176.468C623.359,176.459 624.703,175.679 626.039,174.131C627.38,172.963 628.906,171.219 629.67,170.251C630.625,169.089 632.353,168.306 635.045,167.708L641.78,166.697C643.706,166.684 644.671,167.063 645.642,168.211C646.226,168.978 647.012,171.09 647.217,172.822C647.422,174.746 648.211,177.245 648.799,178.59C649.386,179.741 651.134,181.654 652.487,182.607C653.844,183.56 655.975,185.474 657.332,186.619C659.464,188.529 660.052,189.875 661.044,193.911C661.834,196.602 663.012,199.868 663.6,201.214C664.376,202.363 666.325,205.238 668.072,207.151C669.821,209.259 671.767,212.133 672.549,213.669C673.331,215.205 673.923,217.511 673.933,218.86C673.941,220.015 673.568,221.559 673.184,221.946C672.611,222.337 670.109,222.739 666.45,222.765C663.175,222.788 659.513,222.43 658.161,222.053C656.041,221.684 655.071,220.728 653.125,217.851C651.763,216.127 649.822,214.023 648.665,213.648C647.119,213.08 646.157,213.087 644.427,213.678C643.08,214.071 641.546,215.045 640.783,215.821C639.825,216.791 639.452,218.335 639.283,221.612C639.114,224.885 639.319,226.617 640.292,228.152C640.878,229.111 641.85,230.453 642.624,230.832C643.395,231.21 645.129,231.393 646.479,231.383C648.405,231.369 650.326,230.777 652.627,229.219L655.887,227.078L664.361,227.21C670.526,227.358 673.42,227.724 674.579,228.292C675.353,228.865 676.519,230.398 677.106,231.549C677.692,232.894 678.09,234.43 678.097,235.396C678.102,236.164 678.687,237.509 679.272,238.276C680.051,239.425 681.016,239.805 683.521,239.787C685.833,239.771 687.562,239.18 689.094,238.206C690.246,237.427 691.969,235.873 692.73,234.905C693.684,233.743 694.057,231.815 694.229,228.922C694.588,225.069 694.39,224.683 692.842,223.348C691.679,222.585 689.366,222.023 686.859,221.657C684.353,221.482 681.845,220.921 681.07,220.348C680.103,219.779 678.934,217.862 678.342,215.938C677.557,214.018 676.577,211.52 675.796,210.179C675.212,209.028 673.269,206.538 671.714,204.623C670.16,202.901 668.408,200.409 667.628,199.065C667.042,197.722 666.062,195.609 665.859,194.069L664.475,188.88C663.692,187.152 661.75,184.854 657.87,181.222L652.25,176.253L652.22,172.016C652.191,167.973 652.191,167.973 654.495,166.799C656.028,166.02 660.07,165.412 665.46,164.987C670.271,164.569 675.66,163.759 677.39,163.168C679.119,162.58 681.426,162.177 682.389,162.17C683.352,162.163 684.705,162.732 685.288,163.307C685.868,163.879 687.041,165.991 687.63,167.912C688.607,169.831 689.586,172.136 690.171,172.903C690.755,173.67 692.884,175.385 695.012,176.72C696.95,178.055 699.468,179.963 700.439,181.111C701.408,182.067 702.775,184.945 703.561,187.06C704.543,189.75 706.492,193.011 708.825,195.883C710.96,198.372 714.076,202.972 716.025,206.233C717.973,209.3 721.086,213.516 722.641,215.43C724.39,217.538 727.693,221.944 730.029,225.2C733.532,230.184 735.664,232.286 742.25,237.248C746.509,240.493 752.123,244.304 754.828,245.443C757.34,246.58 762.165,248.087 765.446,248.832C768.917,249.386 774.505,249.925 780.09,249.885C785.677,249.845 790.104,249.427 792.218,248.836C794.14,248.435 796.634,246.879 798.742,245.13C800.464,243.576 802.752,240.477 803.894,238.351C805.034,236.222 806.744,232.938 807.309,231.008C808.063,229.074 809.572,224.442 810.317,220.777C812.005,214.409 812.194,214.021 815.449,211.11C817.171,209.556 819.083,207.617 819.463,206.651C819.841,205.878 820.212,203.949 820.201,202.408C820.19,200.866 819.785,197.981 818.999,195.869Z" style="fill:rgb(0,0,255);fill-rule:nonzero;"/>
    </g>
</svg>
